<mxfile host="app.diagrams.net" agent="Mozilla/5.0 (Windows NT 10.0; Win64; x64) AppleWebKit/537.36 (KHTML, like Gecko) Chrome/136.0.0.0 Safari/537.36 Edg/136.0.0.0" version="27.1.1">
  <diagram name="Page-1" id="187VwEQb4a7iaaE9aRl3">
    <mxGraphModel dx="960" dy="527" grid="1" gridSize="10" guides="1" tooltips="1" connect="1" arrows="1" fold="1" page="1" pageScale="1" pageWidth="827" pageHeight="1169" background="light-dark(#ffffff, #c2a8a8)" math="0" shadow="0">
      <root>
        <mxCell id="0" />
        <mxCell id="1" parent="0" />
        <mxCell id="PxqlU4R29qKm8h3jEwkt-1" value="&lt;font style=&quot;font-size: 13px; color: light-dark(rgb(0, 0, 0), rgb(0, 0, 0));&quot;&gt;&lt;b&gt;User&lt;/b&gt;&lt;/font&gt;" style="shape=umlActor;verticalLabelPosition=bottom;verticalAlign=top;html=1;outlineConnect=0;" vertex="1" parent="1">
          <mxGeometry x="80" y="200" width="30" height="60" as="geometry" />
        </mxCell>
        <mxCell id="PxqlU4R29qKm8h3jEwkt-7" value="&lt;font style=&quot;color: light-dark(rgb(0, 0, 0), rgb(0, 0, 0));&quot;&gt;Register&lt;/font&gt;" style="ellipse;whiteSpace=wrap;html=1;strokeColor=light-dark(#000000,#F7EDFF);fillColor=light-dark(#FFFFFF,#FFFFFF);" vertex="1" parent="1">
          <mxGeometry x="267.5" y="60" width="115" height="70" as="geometry" />
        </mxCell>
        <mxCell id="PxqlU4R29qKm8h3jEwkt-8" value="&lt;font style=&quot;color: light-dark(rgb(0, 0, 0), rgb(0, 0, 0));&quot;&gt;LogIn&lt;/font&gt;" style="ellipse;whiteSpace=wrap;html=1;fillColor=light-dark(#FFFFFF,#FFFFFF);" vertex="1" parent="1">
          <mxGeometry x="267.5" y="150" width="115" height="70" as="geometry" />
        </mxCell>
        <mxCell id="PxqlU4R29qKm8h3jEwkt-9" value="&lt;font style=&quot;color: light-dark(rgb(0, 0, 0), rgb(0, 0, 0));&quot;&gt;Shorten URL&lt;/font&gt;" style="ellipse;whiteSpace=wrap;html=1;fillColor=light-dark(#FFFFFF,#FFFFFF);" vertex="1" parent="1">
          <mxGeometry x="267.5" y="240" width="115" height="70" as="geometry" />
        </mxCell>
        <mxCell id="PxqlU4R29qKm8h3jEwkt-10" value="&lt;font style=&quot;color: light-dark(rgb(0, 0, 0), rgb(0, 0, 0));&quot;&gt;View Previous URL&lt;/font&gt;" style="ellipse;whiteSpace=wrap;html=1;fillColor=light-dark(#FFFFFF,#FFFFFF);" vertex="1" parent="1">
          <mxGeometry x="267.5" y="330" width="115" height="70" as="geometry" />
        </mxCell>
        <mxCell id="PxqlU4R29qKm8h3jEwkt-11" value="" style="endArrow=classic;html=1;rounded=0;entryX=0.039;entryY=0.6;entryDx=0;entryDy=0;entryPerimeter=0;strokeColor=light-dark(#000000,#000000);" edge="1" parent="1" target="PxqlU4R29qKm8h3jEwkt-7">
          <mxGeometry width="50" height="50" relative="1" as="geometry">
            <mxPoint x="120" y="230" as="sourcePoint" />
            <mxPoint x="170" y="180" as="targetPoint" />
          </mxGeometry>
        </mxCell>
        <mxCell id="PxqlU4R29qKm8h3jEwkt-12" value="" style="endArrow=classic;html=1;rounded=0;entryX=0.039;entryY=0.6;entryDx=0;entryDy=0;entryPerimeter=0;strokeColor=light-dark(#000000,#000000);" edge="1" parent="1">
          <mxGeometry width="50" height="50" relative="1" as="geometry">
            <mxPoint x="120" y="230" as="sourcePoint" />
            <mxPoint x="267.5" y="360" as="targetPoint" />
          </mxGeometry>
        </mxCell>
        <mxCell id="PxqlU4R29qKm8h3jEwkt-13" value="" style="endArrow=classic;html=1;rounded=0;entryX=0.039;entryY=0.6;entryDx=0;entryDy=0;entryPerimeter=0;strokeColor=light-dark(#000000,#000000);" edge="1" parent="1">
          <mxGeometry width="50" height="50" relative="1" as="geometry">
            <mxPoint x="120" y="230" as="sourcePoint" />
            <mxPoint x="267.5" y="270" as="targetPoint" />
          </mxGeometry>
        </mxCell>
        <mxCell id="PxqlU4R29qKm8h3jEwkt-14" value="" style="endArrow=classic;html=1;rounded=0;entryX=0.039;entryY=0.6;entryDx=0;entryDy=0;entryPerimeter=0;strokeColor=light-dark(#000000,#000000);" edge="1" parent="1">
          <mxGeometry width="50" height="50" relative="1" as="geometry">
            <mxPoint x="120" y="230" as="sourcePoint" />
            <mxPoint x="267.5" y="182" as="targetPoint" />
          </mxGeometry>
        </mxCell>
        <mxCell id="PxqlU4R29qKm8h3jEwkt-20" value="&lt;font style=&quot;color: light-dark(rgb(0, 0, 0), rgb(0, 0, 0)); font-size: 16px;&quot;&gt;&lt;b&gt;Fig. Use Case Diagram&lt;/b&gt;&lt;/font&gt;" style="text;html=1;align=center;verticalAlign=middle;resizable=0;points=[];autosize=1;strokeColor=none;fillColor=none;" vertex="1" parent="1">
          <mxGeometry x="375" y="480" width="200" height="30" as="geometry" />
        </mxCell>
        <mxCell id="PxqlU4R29qKm8h3jEwkt-21" value="&lt;font style=&quot;color: light-dark(rgb(0, 0, 0), rgb(0, 0, 0));&quot;&gt;View Previous URL&lt;/font&gt;" style="ellipse;whiteSpace=wrap;html=1;fillColor=light-dark(#FFFFFF,#FFFFFF);" vertex="1" parent="1">
          <mxGeometry x="267.5" y="420" width="115" height="70" as="geometry" />
        </mxCell>
        <mxCell id="PxqlU4R29qKm8h3jEwkt-22" value="" style="endArrow=classic;html=1;rounded=0;entryX=0.022;entryY=0.286;entryDx=0;entryDy=0;entryPerimeter=0;strokeColor=light-dark(#000000,#000000);" edge="1" parent="1" target="PxqlU4R29qKm8h3jEwkt-21">
          <mxGeometry width="50" height="50" relative="1" as="geometry">
            <mxPoint x="120" y="230" as="sourcePoint" />
            <mxPoint x="257.5" y="400" as="targetPoint" />
          </mxGeometry>
        </mxCell>
        <mxCell id="PxqlU4R29qKm8h3jEwkt-23" value="&lt;font style=&quot;font-size: 17px; color: light-dark(rgb(0, 0, 0), rgb(0, 0, 0));&quot;&gt;System&lt;/font&gt;" style="rounded=0;whiteSpace=wrap;html=1;fillColor=light-dark(#FFFFFF,#FFFFFF);" vertex="1" parent="1">
          <mxGeometry x="440" y="215" width="90" height="40" as="geometry" />
        </mxCell>
        <mxCell id="PxqlU4R29qKm8h3jEwkt-24" value="&lt;font style=&quot;color: light-dark(rgb(0, 0, 0), rgb(0, 0, 0)); font-size: 14px;&quot;&gt;Retrieve original&amp;nbsp;&lt;/font&gt;&lt;div&gt;&lt;font style=&quot;color: light-dark(rgb(0, 0, 0), rgb(0, 0, 0)); font-size: 14px;&quot;&gt;URL (via API)&lt;/font&gt;&lt;/div&gt;" style="ellipse;whiteSpace=wrap;html=1;fillColor=light-dark(#FFFFFF,#FFFFFF);" vertex="1" parent="1">
          <mxGeometry x="610" y="190" width="190" height="90" as="geometry" />
        </mxCell>
        <mxCell id="PxqlU4R29qKm8h3jEwkt-25" value="" style="endArrow=classic;html=1;rounded=0;exitX=1;exitY=0.5;exitDx=0;exitDy=0;entryX=0;entryY=0.5;entryDx=0;entryDy=0;strokeColor=light-dark(#000000,#000000);" edge="1" parent="1" source="PxqlU4R29qKm8h3jEwkt-23" target="PxqlU4R29qKm8h3jEwkt-24">
          <mxGeometry width="50" height="50" relative="1" as="geometry">
            <mxPoint x="520" y="300" as="sourcePoint" />
            <mxPoint x="600" y="240" as="targetPoint" />
          </mxGeometry>
        </mxCell>
      </root>
    </mxGraphModel>
  </diagram>
</mxfile>
